<?xml version="1.0" standalone="no"?>
<!DOCTYPE svg PUBLIC "-//W3C//DTD SVG 20010904//EN"
 "http://www.w3.org/TR/2001/REC-SVG-20010904/DTD/svg10.dtd">
<svg version="1.0" xmlns="http://www.w3.org/2000/svg"
 width="1024.000000pt" height="1024.000000pt" viewBox="0 0 1024.000000 1024.000000"
 preserveAspectRatio="xMidYMid meet">

<g transform="translate(0.000000,1024.000000) scale(0.100000,-0.100000)"
fill="#000000" stroke="none">
<path d="M0 5120 l0 -5120 5120 0 5120 0 0 5120 0 5120 -5120 0 -5120 0 0
-5120z m4365 3954 c114 -29 292 -99 592 -235 84 -38 157 -69 162 -69 5 0 58
23 117 51 329 153 586 251 707 268 197 27 339 -64 454 -294 94 -187 212 -576
318 -1045 l32 -144 39 -12 c21 -7 113 -33 204 -59 368 -103 582 -196 685 -298
110 -108 111 -184 5 -287 -144 -141 -518 -273 -1020 -359 -512 -88 -951 -123
-1535 -123 -1180 1 -2244 197 -2544 469 -35 31 -70 72 -77 90 -77 184 157 343
746 507 113 31 214 61 226 66 17 7 24 25 38 97 25 127 129 535 177 693 180
597 346 765 674 684z m-865 -2729 c401 -79 892 -154 1242 -190 192 -20 548
-19 759 1 325 30 823 106 1223 185 109 21 213 39 230 39 71 0 85 -40 86 -238
0 -158 -17 -253 -67 -372 -81 -192 -178 -299 -363 -403 -43 -24 -48 -32 -79
-114 -51 -134 -186 -393 -282 -538 -238 -362 -478 -566 -792 -670 -206 -68
-341 -82 -496 -50 -396 81 -703 308 -973 720 -87 132 -218 383 -277 531 l-39
95 -87 52 c-131 78 -219 176 -289 319 -69 140 -85 206 -92 378 -7 146 5 241
33 272 23 26 61 23 263 -17z m85 -1400 c170 -340 294 -523 484 -719 123 -126
196 -187 379 -318 168 -119 227 -169 279 -233 47 -58 86 -131 78 -145 -4 -6
-352 -10 -945 -10 -766 0 -952 -3 -1012 -14 -348 -67 -621 -352 -677 -706 -6
-36 -11 -253 -12 -483 -1 -462 3 -438 -66 -396 -18 12 -43 40 -55 62 -20 39
-20 51 -14 227 31 833 104 1201 291 1466 63 88 187 200 299 269 54 33 202 114
329 181 141 73 233 127 235 137 2 10 -87 113 -227 267 -127 137 -231 257 -231
265 0 29 76 84 230 167 168 91 463 211 505 205 15 -1 47 -56 130 -222z m3345
178 c204 -75 553 -263 579 -311 13 -25 2 -40 -262 -323 -110 -118 -197 -219
-195 -227 2 -9 80 -55 173 -104 411 -215 477 -257 605 -388 171 -174 257 -366
315 -703 29 -171 60 -548 71 -872 6 -202 1 -227 -66 -272 -68 -47 -65 -57 -62
284 3 367 -9 589 -37 688 -76 259 -257 466 -491 561 -153 62 -85 58 -1150 64
l-975 5 3 25 c4 42 90 156 160 213 37 30 114 87 172 127 317 220 479 383 673
680 92 142 160 264 243 439 35 74 69 140 76 148 14 18 44 12 168 -34z m434
-1868 c168 -36 327 -157 399 -305 66 -135 67 -143 67 -650 0 -502 -1 -513 -63
-640 -47 -96 -169 -216 -270 -265 -145 -69 -4 -66 -2422 -63 l-2180 3 -78 28
c-158 56 -276 156 -342 292 -65 132 -66 142 -63 667 3 467 3 474 26 538 55
151 155 268 290 338 46 24 111 49 145 57 96 21 4392 21 4491 0z"/>
<path d="M3651 6147 c-17 -17 -13 -47 23 -189 53 -205 131 -403 180 -456 23
-26 76 -56 116 -65 14 -3 160 -7 325 -8 l300 -3 58 28 c76 36 116 91 161 221
42 118 76 240 76 272 0 28 2 28 -250 53 -250 25 -539 68 -790 119 -132 27
-192 35 -199 28z"/>
<path d="M6515 6145 c-5 -3 -97 -20 -204 -40 -259 -47 -565 -91 -774 -110
-110 -11 -177 -21 -186 -30 -11 -11 -8 -30 17 -121 54 -193 90 -279 138 -333
69 -77 95 -84 334 -89 113 -2 260 1 327 6 193 15 229 46 318 274 50 130 118
378 113 418 -3 21 -9 25 -38 27 -19 1 -39 0 -45 -2z"/>
<path d="M5066 5827 c-29 -29 -88 -180 -161 -412 -71 -226 -83 -290 -58 -318
50 -55 178 -107 267 -107 72 0 169 31 235 76 l54 36 -6 62 c-5 60 -109 404
-168 558 -40 102 -61 128 -105 128 -23 0 -43 -8 -58 -23z"/>
<path d="M2905 3036 c-127 -40 -227 -137 -260 -249 -22 -78 -24 -904 -2 -963
44 -119 122 -204 222 -245 l60 -24 2195 0 2195 0 60 24 c83 33 183 133 216
216 23 59 24 65 27 470 2 284 0 428 -8 470 -29 148 -128 258 -269 299 -49 14
-270 16 -2225 15 -1724 0 -2179 -3 -2211 -13z m678 -297 c63 -17 71 -41 64
-181 -6 -94 -4 -119 6 -115 193 83 233 91 265 57 21 -23 42 -84 42 -124 0 -52
-16 -64 -123 -97 -56 -17 -108 -32 -115 -34 -8 -3 16 -42 63 -105 41 -56 75
-108 75 -117 0 -39 -76 -117 -127 -129 -35 -9 -63 15 -133 115 -36 50 -68 91
-72 91 -4 0 -39 -45 -79 -100 -44 -63 -80 -102 -94 -106 -47 -12 -155 74 -155
123 0 17 25 59 70 119 39 52 70 96 70 98 0 3 -47 20 -105 37 -132 41 -149 55
-142 120 7 58 29 104 61 124 23 15 30 14 128 -23 56 -22 111 -43 121 -47 16
-7 17 1 11 116 -6 113 -5 126 12 147 29 36 95 49 157 31z m1094 -15 c31 -19
36 -47 31 -169 -2 -74 0 -105 8 -105 6 0 44 13 83 30 143 59 170 57 200 -12
30 -69 34 -112 14 -137 -16 -19 -175 -81 -209 -81 -29 0 -20 -22 46 -110 86
-115 90 -132 38 -186 -40 -42 -104 -71 -126 -58 -10 6 -49 53 -88 104 -38 52
-74 95 -80 96 -5 2 -35 -34 -67 -80 -80 -114 -97 -130 -137 -121 -39 9 -130
93 -130 121 0 11 34 64 75 119 41 54 75 100 75 102 0 1 -45 16 -99 33 -120 37
-151 59 -151 103 1 41 23 103 46 128 25 28 61 24 174 -20 l101 -39 -3 128 c-3
109 0 132 13 146 35 34 138 39 186 8z m1060 0 c32 -20 37 -50 29 -170 -6 -85
-5 -104 6 -104 8 0 54 16 102 36 110 44 152 43 179 -3 24 -42 34 -137 17 -158
-7 -8 -58 -29 -114 -46 -55 -17 -105 -35 -110 -40 -5 -4 23 -49 63 -102 75
-98 83 -125 55 -166 -21 -29 -102 -81 -126 -81 -24 0 -55 33 -124 132 -30 43
-58 78 -62 78 -4 0 -36 -41 -72 -91 -73 -104 -96 -123 -136 -113 -36 9 -124
95 -124 121 0 11 23 51 52 89 28 38 62 83 76 101 l24 32 -101 31 c-55 17 -111
40 -125 51 -30 23 -33 61 -12 122 29 81 65 93 158 56 29 -12 75 -30 101 -40
l48 -19 -3 129 c-3 110 0 133 13 147 35 34 138 39 186 8z m1037 16 c7 0 22 -9
34 -20 20 -19 22 -30 22 -145 0 -76 4 -125 10 -125 5 0 50 16 99 36 138 55
179 40 201 -75 15 -80 4 -91 -130 -136 -60 -20 -108 -41 -105 -45 3 -5 37 -51
75 -102 39 -51 70 -101 70 -112 0 -28 -91 -112 -130 -121 -40 -9 -57 7 -137
121 -32 46 -61 83 -65 84 -3 0 -35 -39 -71 -87 -80 -110 -99 -127 -130 -119
-37 9 -105 63 -122 96 -19 36 -16 43 65 150 31 41 60 80 64 87 5 9 -25 22 -99
44 -116 36 -145 55 -145 99 0 37 35 130 52 142 25 15 74 6 168 -31 l95 -39 3
128 c2 111 5 130 22 145 24 22 76 35 114 29 16 -2 34 -4 40 -4z"/>
</g>
</svg>
